# xmcd CD database file
#
# Track frame offsets:
#	150
#	23165
#	44230
#	58054
#	77930
#	97616
#	114431
#	132949
#	151858
#	171323
#	185669
#	207672
#	224585
#	239056
#
# Disc length: 3472 seconds
#
# Revision: 0
# Processed by: cddbd v1.5.1PL0 Copyright (c) Steve Scherf et al.
# Submitted via: CDex 1.51
#
DISCID=d10d8e0e
DTITLE=L.A. GUNS - Tales From The Strip
DYEAR=2005
DGENRE=Hard Rock
TTITLE0=It Don't Mean Nothing
TTITLE1=Electric Neon Sunset
TTITLE2=Gypsy Soul
TTITLE3=Original Sin
TTITLE4=Vampire
TTITLE5=Hollywood's Burning
TTITLE6=6.9 Earthshaker
TTITLE7=Rox Baby Girl
TTITLE8=Crazy Motorcycle
TTITLE9=Skin
TTITLE10=Shame
TTITLE11=Ressurection
TTITLE12=Amanecer
TTITLE13=(Can't Give You) Anything Better Than Love
EXTD=YEAR: 2005
EXTT0=
EXTT1=
EXTT2=
EXTT3=
EXTT4=
EXTT5=
EXTT6=
EXTT7=
EXTT8=
EXTT9=
EXTT10=
EXTT11=
EXTT12=
EXTT13=
PLAYORDER=
